<svg width="298" height="44" viewBox="0 0 298 44" fill="none" xmlns="http://www.w3.org/2000/svg">
<path d="M251.09 15.3174V28H255.845C259.642 28 261.812 25.6709 261.812 21.6016C261.812 17.6201 259.615 15.3174 255.845 15.3174H251.09ZM253.357 17.2773H255.546C258.033 17.2773 259.501 18.8682 259.501 21.6367C259.501 24.4668 258.068 26.04 255.546 26.04H253.357V17.2773ZM267.882 28.1934C270.756 28.1934 272.505 26.3125 272.505 23.1924C272.505 20.0811 270.747 18.1914 267.882 18.1914C265.026 18.1914 263.259 20.0898 263.259 23.1924C263.259 26.3125 264.999 28.1934 267.882 28.1934ZM267.882 26.3652C266.362 26.3652 265.492 25.2051 265.492 23.1924C265.492 21.1885 266.362 20.0195 267.882 20.0195C269.394 20.0195 270.264 21.1885 270.264 23.1924C270.264 25.2051 269.403 26.3652 267.882 26.3652ZM274.268 28H276.448V22.4014C276.448 20.9863 277.265 20.0898 278.566 20.0898C279.893 20.0898 280.509 20.8281 280.509 22.2959V28H282.688V21.7773C282.688 19.4834 281.519 18.1914 279.375 18.1914C277.942 18.1914 276.975 18.8506 276.518 19.9229H276.369V18.3848H274.268V28ZM288.872 19.9229C290.182 19.9229 291.043 20.8369 291.087 22.2607H286.561C286.658 20.8545 287.572 19.9229 288.872 19.9229ZM291.105 25.3545C290.788 26.0664 290.041 26.4619 288.96 26.4619C287.528 26.4619 286.605 25.46 286.552 23.8604V23.7461H293.267V23.043C293.267 20.0107 291.623 18.1914 288.881 18.1914C286.095 18.1914 284.364 20.1338 284.364 23.2275C284.364 26.3213 286.069 28.1934 288.899 28.1934C291.166 28.1934 292.757 27.1035 293.17 25.3545H291.105Z" fill="#006CFF"/>
<path d="M19.4383 28.2988C22.1365 28.2988 24.1404 26.7959 24.5623 24.4668H22.9539C22.5496 25.9346 21.2049 26.8398 19.4383 26.8398C16.9949 26.8398 15.4656 24.8447 15.4656 21.6631C15.4656 18.4814 16.9949 16.4775 19.4295 16.4775C21.1785 16.4775 22.5321 17.5059 22.9539 19.1406H24.5623C24.1844 16.6973 22.1014 15.0186 19.4295 15.0186C15.9842 15.0186 13.8397 17.5674 13.8397 21.6631C13.8397 25.75 15.993 28.2988 19.4383 28.2988ZM29.5071 26.8398C28.4085 26.8398 27.5911 26.2773 27.5911 25.3105C27.5911 24.3613 28.2239 23.8604 29.6653 23.7637L32.2141 23.5967V24.4668C32.2141 25.8203 31.0628 26.8398 29.5071 26.8398ZM29.2259 28.167C30.4915 28.167 31.5286 27.6133 32.1438 26.6025H32.2845V28H33.7259V21.5137C33.7259 19.5449 32.4339 18.3584 30.1223 18.3584C28.1009 18.3584 26.6067 19.3604 26.4046 20.8809H27.9339C28.1448 20.1338 28.9358 19.7031 30.0696 19.7031C31.4847 19.7031 32.2141 20.3447 32.2141 21.5137V22.375L29.4807 22.542C27.2747 22.6738 26.0266 23.6494 26.0266 25.3457C26.0266 27.0771 27.3889 28.167 29.2259 28.167ZM36.0867 28H37.5984V22.3926C37.5984 20.7314 38.574 19.7207 40.0857 19.7207C41.5974 19.7207 42.3181 20.5293 42.3181 22.2344V28H43.8298V21.8652C43.8298 19.6152 42.6433 18.3584 40.5164 18.3584C39.0662 18.3584 38.1433 18.9736 37.6687 20.0195H37.5281V18.5254H36.0867V28ZM54.0041 21.4258C53.7404 19.7383 52.3342 18.3584 50.0315 18.3584C47.3772 18.3584 45.6897 20.2744 45.6897 23.2275C45.6897 26.2422 47.3859 28.167 50.0402 28.167C52.3166 28.167 53.7317 26.8838 54.0041 25.1436H52.4748C52.1936 26.2158 51.3059 26.8047 50.0315 26.8047C48.344 26.8047 47.2541 25.416 47.2541 23.2275C47.2541 21.083 48.3264 19.7207 50.0315 19.7207C51.3938 19.7207 52.2287 20.4854 52.4748 21.4258H54.0041ZM59.5817 19.6943C61.0846 19.6943 62.0866 20.8018 62.1218 22.4805H56.9011C57.0153 20.8018 58.07 19.6943 59.5817 19.6943ZM62.0778 25.5479C61.6823 26.3828 60.8561 26.8311 59.6344 26.8311C58.0261 26.8311 56.9802 25.6445 56.9011 23.7725V23.7021H63.7126V23.1221C63.7126 20.1777 62.1569 18.3584 59.5993 18.3584C56.9977 18.3584 55.3278 20.292 55.3278 23.2715C55.3278 26.2686 56.9714 28.167 59.5993 28.167C61.6735 28.167 63.1325 27.1738 63.5895 25.5479H62.0778ZM65.7394 28H67.2511V14.7637H65.7394V28Z" fill="#006CFF"/>
</svg>
