<svg width="341" height="298" viewBox="0 0 341 298" fill="none" xmlns="http://www.w3.org/2000/svg">
<mask id="path-1-inside-1_13444_1181" fill="white">
<path d="M3 50C3 44.4772 7.47715 40 13 40H323C328.523 40 333 44.4772 333 50V288C333 293.523 328.523 298 323 298H13C7.47714 298 3 293.523 3 288V50Z"/>
<path d="M303.319 1.31738C300.693 1.31738 298.564 3.44622 298.564 6.07227V9.24512C298.564 11.8712 300.693 14 303.319 14C307.116 14 309.287 11.6709 309.287 7.60156C309.287 3.62012 307.09 1.31738 303.319 1.31738ZM300.832 5.46582C300.832 4.25716 301.812 3.27734 303.021 3.27734C305.508 3.27734 306.976 4.86816 306.976 7.63672C306.976 10.4668 305.543 12.04 303.021 12.04C301.812 12.04 300.832 11.0602 300.832 9.85156V5.46582ZM315.357 14.1934C318.231 14.1934 319.98 12.3125 319.98 9.19238C319.98 6.08105 318.222 4.19141 315.357 4.19141C312.5 4.19141 310.734 6.08984 310.734 9.19238C310.734 12.3125 312.474 14.1934 315.357 14.1934ZM315.357 12.3652C313.836 12.3652 312.966 11.2051 312.966 9.19238C312.966 7.18848 313.836 6.01953 315.357 6.01953C316.869 6.01953 317.739 7.18848 317.739 9.19238C317.739 11.2051 316.877 12.3652 315.357 12.3652ZM321.743 12.9102C321.743 13.5121 322.231 14 322.833 14C323.435 14 323.923 13.5121 323.923 12.9102V8.40137C323.923 6.98633 324.74 6.08984 326.041 6.08984C327.368 6.08984 327.983 6.82812 327.983 8.2959V12.9102C327.983 13.5121 328.471 14 329.073 14C329.675 14 330.163 13.5121 330.163 12.9102V7.77734C330.163 5.4834 328.994 4.19141 326.85 4.19141C325.441 4.19141 324.483 4.82826 324.017 5.86826C324.002 5.90116 323.97 5.92285 323.934 5.92285C323.884 5.92285 323.844 5.88257 323.844 5.83289V5.15381C323.844 4.72908 323.499 4.38477 323.075 4.38477H322.793C322.213 4.38477 321.743 4.855 321.743 5.43506V12.9102ZM336.347 5.92285C336.86 5.92285 337.304 6.0629 337.657 6.31874C338.641 7.03165 337.557 8.26074 336.342 8.26074C335.094 8.26074 334.033 6.98279 335.071 6.29097C335.427 6.05356 335.86 5.92285 336.347 5.92285ZM339.281 11.3545C338.854 11.3545 338.488 11.6333 338.17 11.9176C337.774 12.2717 337.185 12.4619 336.435 12.4619C335.002 12.4619 334.079 11.46 334.027 9.86035C334.027 9.79725 334.078 9.74609 334.141 9.74609H340.038C340.427 9.74609 340.742 9.43129 340.742 9.04297C340.742 6.01074 339.098 4.19141 336.356 4.19141C333.57 4.19141 331.838 6.13379 331.838 9.22754C331.838 12.3213 333.543 14.1934 336.373 14.1934C338.045 14.1934 339.349 13.6008 340.085 12.5884C340.494 12.025 339.977 11.3545 339.281 11.3545Z"/>
<path d="M5.72363 14.2988C8.03775 14.2988 9.84116 13.1934 10.5739 11.4093C10.7684 10.9357 10.3766 10.4668 9.86465 10.4668C9.49522 10.4668 9.18174 10.72 9.0153 11.0498C8.44978 12.1705 7.24266 12.8398 5.72363 12.8398C3.28027 12.8398 1.75098 10.8447 1.75098 7.66309C1.75098 4.48145 3.28027 2.47754 5.71484 2.47754C7.23656 2.47754 8.45889 3.25594 9.02874 4.53491C9.18252 4.88004 9.50327 5.14062 9.88112 5.14062C10.3892 5.14062 10.7825 4.68279 10.608 4.20563C9.9034 2.27919 8.03023 1.01855 5.71484 1.01855C2.26953 1.01855 0.125 3.56738 0.125 7.66309C0.125 11.75 2.27832 14.2988 5.72363 14.2988ZM15.7924 12.8398C14.6938 12.8398 13.8764 12.2773 13.8764 11.3105C13.8764 10.3613 14.5092 9.86035 15.9506 9.76367L17.6312 9.65357C18.1013 9.62277 18.4995 9.99573 18.4995 10.4668C18.4995 11.8203 17.3481 12.8398 15.7924 12.8398ZM15.5112 14.167C16.7587 14.167 17.7842 13.629 18.4025 12.6457C18.4192 12.6191 18.4483 12.6025 18.4798 12.6025C18.5295 12.6025 18.5698 12.6428 18.5698 12.6926V13.3013C18.5698 13.6872 18.8826 14 19.2685 14H19.2905C19.6885 14 20.0112 13.6773 20.0112 13.2793V7.51367C20.0112 5.54492 18.7192 4.3584 16.4077 4.3584C14.8028 4.3584 13.5303 4.98993 12.9728 6.01109C12.7394 6.43859 13.1226 6.88086 13.6096 6.88086C13.9702 6.88086 14.27 6.62039 14.5092 6.3506C14.8787 5.93389 15.525 5.70312 16.3549 5.70312C17.77 5.70312 18.4995 6.34473 18.4995 7.51367C18.4995 7.99764 18.1228 8.39801 17.6398 8.42752L15.7661 8.54199C13.56 8.67383 12.312 9.64941 12.312 11.3457C12.312 13.0771 13.6743 14.167 15.5112 14.167ZM22.372 13.2441C22.372 13.6616 22.7104 14 23.1279 14C23.5453 14 23.8837 13.6616 23.8837 13.2441V8.39258C23.8837 6.73145 24.8593 5.7207 26.371 5.7207C27.8827 5.7207 28.6034 6.5293 28.6034 8.23438V13.2441C28.6034 13.6616 28.9419 14 29.3593 14C29.7768 14 30.1152 13.6616 30.1152 13.2441V7.86523C30.1152 5.61523 28.9286 4.3584 26.8017 4.3584C25.3748 4.3584 24.4585 4.954 23.9773 5.96941C23.9629 5.99973 23.9325 6.01953 23.8989 6.01953C23.8517 6.01953 23.8134 5.98124 23.8134 5.93401V5.24609C23.8134 4.84806 23.4907 4.52539 23.0927 4.52539C22.6947 4.52539 22.372 4.84806 22.372 5.24609V13.2441ZM39.3686 7.42578C39.8524 7.42578 40.2274 6.98709 40.0343 6.54349C39.4856 5.28271 38.2014 4.3584 36.3168 4.3584C33.6625 4.3584 31.975 6.27441 31.975 9.22754C31.975 12.2422 33.6713 14.167 36.3256 14.167C38.1957 14.167 39.4846 13.3009 40.036 12.0268C40.2283 11.5827 39.8522 11.1436 39.3683 11.1436C39.01 11.1436 38.7112 11.395 38.5332 11.7059C38.1245 12.4199 37.347 12.8047 36.3168 12.8047C34.6293 12.8047 33.5394 11.416 33.5394 9.22754C33.5394 7.08301 34.6117 5.7207 36.3168 5.7207C37.3945 5.7207 38.1422 6.19925 38.5294 6.86479C38.7096 7.17461 39.0102 7.42578 39.3686 7.42578ZM45.867 5.69434C46.4823 5.69434 47.0136 5.87992 47.429 6.2143C48.5188 7.09158 47.2572 8.48047 45.8582 8.48047C44.4129 8.48047 43.1662 7.01058 44.3387 6.16556C44.76 5.86193 45.279 5.69434 45.867 5.69434ZM48.8531 11.5479C48.5539 11.5479 48.2919 11.7293 48.1057 11.9635C47.655 12.5306 46.92 12.8311 45.9198 12.8311C44.3114 12.8311 43.2655 11.6445 43.1864 9.77246C43.1864 9.73363 43.2179 9.70215 43.2567 9.70215H49.4178C49.7382 9.70215 49.9979 9.44244 49.9979 9.12207C49.9979 6.17773 48.4422 4.3584 45.8846 4.3584C43.2831 4.3584 41.6131 6.29199 41.6131 9.27148C41.6131 12.2686 43.2567 14.167 45.8846 14.167C47.5266 14.167 48.783 13.5446 49.4621 12.4787C49.7377 12.0461 49.366 11.5479 48.8531 11.5479ZM52.0247 13.2441C52.0247 13.6616 52.3631 14 52.7806 14C53.198 14 53.5364 13.6616 53.5364 13.2441V1.51953C53.5364 1.10208 53.198 0.763672 52.7806 0.763672C52.3631 0.763672 52.0247 1.10208 52.0247 1.51953V13.2441Z"/>
</mask>
<path d="M3 50C3 44.4772 7.47715 40 13 40H323C328.523 40 333 44.4772 333 50V288C333 293.523 328.523 298 323 298H13C7.47714 298 3 293.523 3 288V50Z" fill="white"/>
<path d="M303.319 1.31738C300.693 1.31738 298.564 3.44622 298.564 6.07227V9.24512C298.564 11.8712 300.693 14 303.319 14C307.116 14 309.287 11.6709 309.287 7.60156C309.287 3.62012 307.09 1.31738 303.319 1.31738ZM300.832 5.46582C300.832 4.25716 301.812 3.27734 303.021 3.27734C305.508 3.27734 306.976 4.86816 306.976 7.63672C306.976 10.4668 305.543 12.04 303.021 12.04C301.812 12.04 300.832 11.0602 300.832 9.85156V5.46582ZM315.357 14.1934C318.231 14.1934 319.98 12.3125 319.98 9.19238C319.98 6.08105 318.222 4.19141 315.357 4.19141C312.5 4.19141 310.734 6.08984 310.734 9.19238C310.734 12.3125 312.474 14.1934 315.357 14.1934ZM315.357 12.3652C313.836 12.3652 312.966 11.2051 312.966 9.19238C312.966 7.18848 313.836 6.01953 315.357 6.01953C316.869 6.01953 317.739 7.18848 317.739 9.19238C317.739 11.2051 316.877 12.3652 315.357 12.3652ZM321.743 12.9102C321.743 13.5121 322.231 14 322.833 14C323.435 14 323.923 13.5121 323.923 12.9102V8.40137C323.923 6.98633 324.74 6.08984 326.041 6.08984C327.368 6.08984 327.983 6.82812 327.983 8.2959V12.9102C327.983 13.5121 328.471 14 329.073 14C329.675 14 330.163 13.5121 330.163 12.9102V7.77734C330.163 5.4834 328.994 4.19141 326.85 4.19141C325.441 4.19141 324.483 4.82826 324.017 5.86826C324.002 5.90116 323.97 5.92285 323.934 5.92285C323.884 5.92285 323.844 5.88257 323.844 5.83289V5.15381C323.844 4.72908 323.499 4.38477 323.075 4.38477H322.793C322.213 4.38477 321.743 4.855 321.743 5.43506V12.9102ZM336.347 5.92285C336.86 5.92285 337.304 6.0629 337.657 6.31874C338.641 7.03165 337.557 8.26074 336.342 8.26074C335.094 8.26074 334.033 6.98279 335.071 6.29097C335.427 6.05356 335.86 5.92285 336.347 5.92285ZM339.281 11.3545C338.854 11.3545 338.488 11.6333 338.17 11.9176C337.774 12.2717 337.185 12.4619 336.435 12.4619C335.002 12.4619 334.079 11.46 334.027 9.86035C334.027 9.79725 334.078 9.74609 334.141 9.74609H340.038C340.427 9.74609 340.742 9.43129 340.742 9.04297C340.742 6.01074 339.098 4.19141 336.356 4.19141C333.57 4.19141 331.838 6.13379 331.838 9.22754C331.838 12.3213 333.543 14.1934 336.373 14.1934C338.045 14.1934 339.349 13.6008 340.085 12.5884C340.494 12.025 339.977 11.3545 339.281 11.3545Z" fill="white"/>
<path d="M5.72363 14.2988C8.03775 14.2988 9.84116 13.1934 10.5739 11.4093C10.7684 10.9357 10.3766 10.4668 9.86465 10.4668C9.49522 10.4668 9.18174 10.72 9.0153 11.0498C8.44978 12.1705 7.24266 12.8398 5.72363 12.8398C3.28027 12.8398 1.75098 10.8447 1.75098 7.66309C1.75098 4.48145 3.28027 2.47754 5.71484 2.47754C7.23656 2.47754 8.45889 3.25594 9.02874 4.53491C9.18252 4.88004 9.50327 5.14062 9.88112 5.14062C10.3892 5.14062 10.7825 4.68279 10.608 4.20563C9.9034 2.27919 8.03023 1.01855 5.71484 1.01855C2.26953 1.01855 0.125 3.56738 0.125 7.66309C0.125 11.75 2.27832 14.2988 5.72363 14.2988ZM15.7924 12.8398C14.6938 12.8398 13.8764 12.2773 13.8764 11.3105C13.8764 10.3613 14.5092 9.86035 15.9506 9.76367L17.6312 9.65357C18.1013 9.62277 18.4995 9.99573 18.4995 10.4668C18.4995 11.8203 17.3481 12.8398 15.7924 12.8398ZM15.5112 14.167C16.7587 14.167 17.7842 13.629 18.4025 12.6457C18.4192 12.6191 18.4483 12.6025 18.4798 12.6025C18.5295 12.6025 18.5698 12.6428 18.5698 12.6926V13.3013C18.5698 13.6872 18.8826 14 19.2685 14H19.2905C19.6885 14 20.0112 13.6773 20.0112 13.2793V7.51367C20.0112 5.54492 18.7192 4.3584 16.4077 4.3584C14.8028 4.3584 13.5303 4.98993 12.9728 6.01109C12.7394 6.43859 13.1226 6.88086 13.6096 6.88086C13.9702 6.88086 14.27 6.62039 14.5092 6.3506C14.8787 5.93389 15.525 5.70312 16.3549 5.70312C17.77 5.70312 18.4995 6.34473 18.4995 7.51367C18.4995 7.99764 18.1228 8.39801 17.6398 8.42752L15.7661 8.54199C13.56 8.67383 12.312 9.64941 12.312 11.3457C12.312 13.0771 13.6743 14.167 15.5112 14.167ZM22.372 13.2441C22.372 13.6616 22.7104 14 23.1279 14C23.5453 14 23.8837 13.6616 23.8837 13.2441V8.39258C23.8837 6.73145 24.8593 5.7207 26.371 5.7207C27.8827 5.7207 28.6034 6.5293 28.6034 8.23438V13.2441C28.6034 13.6616 28.9419 14 29.3593 14C29.7768 14 30.1152 13.6616 30.1152 13.2441V7.86523C30.1152 5.61523 28.9286 4.3584 26.8017 4.3584C25.3748 4.3584 24.4585 4.954 23.9773 5.96941C23.9629 5.99973 23.9325 6.01953 23.8989 6.01953C23.8517 6.01953 23.8134 5.98124 23.8134 5.93401V5.24609C23.8134 4.84806 23.4907 4.52539 23.0927 4.52539C22.6947 4.52539 22.372 4.84806 22.372 5.24609V13.2441ZM39.3686 7.42578C39.8524 7.42578 40.2274 6.98709 40.0343 6.54349C39.4856 5.28271 38.2014 4.3584 36.3168 4.3584C33.6625 4.3584 31.975 6.27441 31.975 9.22754C31.975 12.2422 33.6713 14.167 36.3256 14.167C38.1957 14.167 39.4846 13.3009 40.036 12.0268C40.2283 11.5827 39.8522 11.1436 39.3683 11.1436C39.01 11.1436 38.7112 11.395 38.5332 11.7059C38.1245 12.4199 37.347 12.8047 36.3168 12.8047C34.6293 12.8047 33.5394 11.416 33.5394 9.22754C33.5394 7.08301 34.6117 5.7207 36.3168 5.7207C37.3945 5.7207 38.1422 6.19925 38.5294 6.86479C38.7096 7.17461 39.0102 7.42578 39.3686 7.42578ZM45.867 5.69434C46.4823 5.69434 47.0136 5.87992 47.429 6.2143C48.5188 7.09158 47.2572 8.48047 45.8582 8.48047C44.4129 8.48047 43.1662 7.01058 44.3387 6.16556C44.76 5.86193 45.279 5.69434 45.867 5.69434ZM48.8531 11.5479C48.5539 11.5479 48.2919 11.7293 48.1057 11.9635C47.655 12.5306 46.92 12.8311 45.9198 12.8311C44.3114 12.8311 43.2655 11.6445 43.1864 9.77246C43.1864 9.73363 43.2179 9.70215 43.2567 9.70215H49.4178C49.7382 9.70215 49.9979 9.44244 49.9979 9.12207C49.9979 6.17773 48.4422 4.3584 45.8846 4.3584C43.2831 4.3584 41.6131 6.29199 41.6131 9.27148C41.6131 12.2686 43.2567 14.167 45.8846 14.167C47.5266 14.167 48.783 13.5446 49.4621 12.4787C49.7377 12.0461 49.366 11.5479 48.8531 11.5479ZM52.0247 13.2441C52.0247 13.6616 52.3631 14 52.7806 14C53.198 14 53.5364 13.6616 53.5364 13.2441V1.51953C53.5364 1.10208 53.198 0.763672 52.7806 0.763672C52.3631 0.763672 52.0247 1.10208 52.0247 1.51953V13.2441Z" fill="white"/>
<path d="M3 50C3 44.4772 7.47715 40 13 40H323C328.523 40 333 44.4772 333 50V288C333 293.523 328.523 298 323 298H13C7.47714 298 3 293.523 3 288V50Z" stroke="#EBEFF5" stroke-width="2" mask="url(#path-1-inside-1_13444_1181)"/>
<path d="M303.319 1.31738C300.693 1.31738 298.564 3.44622 298.564 6.07227V9.24512C298.564 11.8712 300.693 14 303.319 14C307.116 14 309.287 11.6709 309.287 7.60156C309.287 3.62012 307.09 1.31738 303.319 1.31738ZM300.832 5.46582C300.832 4.25716 301.812 3.27734 303.021 3.27734C305.508 3.27734 306.976 4.86816 306.976 7.63672C306.976 10.4668 305.543 12.04 303.021 12.04C301.812 12.04 300.832 11.0602 300.832 9.85156V5.46582ZM315.357 14.1934C318.231 14.1934 319.98 12.3125 319.98 9.19238C319.98 6.08105 318.222 4.19141 315.357 4.19141C312.5 4.19141 310.734 6.08984 310.734 9.19238C310.734 12.3125 312.474 14.1934 315.357 14.1934ZM315.357 12.3652C313.836 12.3652 312.966 11.2051 312.966 9.19238C312.966 7.18848 313.836 6.01953 315.357 6.01953C316.869 6.01953 317.739 7.18848 317.739 9.19238C317.739 11.2051 316.877 12.3652 315.357 12.3652ZM321.743 12.9102C321.743 13.5121 322.231 14 322.833 14C323.435 14 323.923 13.5121 323.923 12.9102V8.40137C323.923 6.98633 324.74 6.08984 326.041 6.08984C327.368 6.08984 327.983 6.82812 327.983 8.2959V12.9102C327.983 13.5121 328.471 14 329.073 14C329.675 14 330.163 13.5121 330.163 12.9102V7.77734C330.163 5.4834 328.994 4.19141 326.85 4.19141C325.441 4.19141 324.483 4.82826 324.017 5.86826C324.002 5.90116 323.97 5.92285 323.934 5.92285C323.884 5.92285 323.844 5.88257 323.844 5.83289V5.15381C323.844 4.72908 323.499 4.38477 323.075 4.38477H322.793C322.213 4.38477 321.743 4.855 321.743 5.43506V12.9102ZM336.347 5.92285C336.86 5.92285 337.304 6.0629 337.657 6.31874C338.641 7.03165 337.557 8.26074 336.342 8.26074C335.094 8.26074 334.033 6.98279 335.071 6.29097C335.427 6.05356 335.86 5.92285 336.347 5.92285ZM339.281 11.3545C338.854 11.3545 338.488 11.6333 338.17 11.9176C337.774 12.2717 337.185 12.4619 336.435 12.4619C335.002 12.4619 334.079 11.46 334.027 9.86035C334.027 9.79725 334.078 9.74609 334.141 9.74609H340.038C340.427 9.74609 340.742 9.43129 340.742 9.04297C340.742 6.01074 339.098 4.19141 336.356 4.19141C333.57 4.19141 331.838 6.13379 331.838 9.22754C331.838 12.3213 333.543 14.1934 336.373 14.1934C338.045 14.1934 339.349 13.6008 340.085 12.5884C340.494 12.025 339.977 11.3545 339.281 11.3545Z" stroke="#EBEFF5" stroke-width="2" mask="url(#path-1-inside-1_13444_1181)"/>
<path d="M5.72363 14.2988C8.03775 14.2988 9.84116 13.1934 10.5739 11.4093C10.7684 10.9357 10.3766 10.4668 9.86465 10.4668C9.49522 10.4668 9.18174 10.72 9.0153 11.0498C8.44978 12.1705 7.24266 12.8398 5.72363 12.8398C3.28027 12.8398 1.75098 10.8447 1.75098 7.66309C1.75098 4.48145 3.28027 2.47754 5.71484 2.47754C7.23656 2.47754 8.45889 3.25594 9.02874 4.53491C9.18252 4.88004 9.50327 5.14062 9.88112 5.14062C10.3892 5.14062 10.7825 4.68279 10.608 4.20563C9.9034 2.27919 8.03023 1.01855 5.71484 1.01855C2.26953 1.01855 0.125 3.56738 0.125 7.66309C0.125 11.75 2.27832 14.2988 5.72363 14.2988ZM15.7924 12.8398C14.6938 12.8398 13.8764 12.2773 13.8764 11.3105C13.8764 10.3613 14.5092 9.86035 15.9506 9.76367L17.6312 9.65357C18.1013 9.62277 18.4995 9.99573 18.4995 10.4668C18.4995 11.8203 17.3481 12.8398 15.7924 12.8398ZM15.5112 14.167C16.7587 14.167 17.7842 13.629 18.4025 12.6457C18.4192 12.6191 18.4483 12.6025 18.4798 12.6025C18.5295 12.6025 18.5698 12.6428 18.5698 12.6926V13.3013C18.5698 13.6872 18.8826 14 19.2685 14H19.2905C19.6885 14 20.0112 13.6773 20.0112 13.2793V7.51367C20.0112 5.54492 18.7192 4.3584 16.4077 4.3584C14.8028 4.3584 13.5303 4.98993 12.9728 6.01109C12.7394 6.43859 13.1226 6.88086 13.6096 6.88086C13.9702 6.88086 14.27 6.62039 14.5092 6.3506C14.8787 5.93389 15.525 5.70312 16.3549 5.70312C17.77 5.70312 18.4995 6.34473 18.4995 7.51367C18.4995 7.99764 18.1228 8.39801 17.6398 8.42752L15.7661 8.54199C13.56 8.67383 12.312 9.64941 12.312 11.3457C12.312 13.0771 13.6743 14.167 15.5112 14.167ZM22.372 13.2441C22.372 13.6616 22.7104 14 23.1279 14C23.5453 14 23.8837 13.6616 23.8837 13.2441V8.39258C23.8837 6.73145 24.8593 5.7207 26.371 5.7207C27.8827 5.7207 28.6034 6.5293 28.6034 8.23438V13.2441C28.6034 13.6616 28.9419 14 29.3593 14C29.7768 14 30.1152 13.6616 30.1152 13.2441V7.86523C30.1152 5.61523 28.9286 4.3584 26.8017 4.3584C25.3748 4.3584 24.4585 4.954 23.9773 5.96941C23.9629 5.99973 23.9325 6.01953 23.8989 6.01953C23.8517 6.01953 23.8134 5.98124 23.8134 5.93401V5.24609C23.8134 4.84806 23.4907 4.52539 23.0927 4.52539C22.6947 4.52539 22.372 4.84806 22.372 5.24609V13.2441ZM39.3686 7.42578C39.8524 7.42578 40.2274 6.98709 40.0343 6.54349C39.4856 5.28271 38.2014 4.3584 36.3168 4.3584C33.6625 4.3584 31.975 6.27441 31.975 9.22754C31.975 12.2422 33.6713 14.167 36.3256 14.167C38.1957 14.167 39.4846 13.3009 40.036 12.0268C40.2283 11.5827 39.8522 11.1436 39.3683 11.1436C39.01 11.1436 38.7112 11.395 38.5332 11.7059C38.1245 12.4199 37.347 12.8047 36.3168 12.8047C34.6293 12.8047 33.5394 11.416 33.5394 9.22754C33.5394 7.08301 34.6117 5.7207 36.3168 5.7207C37.3945 5.7207 38.1422 6.19925 38.5294 6.86479C38.7096 7.17461 39.0102 7.42578 39.3686 7.42578ZM45.867 5.69434C46.4823 5.69434 47.0136 5.87992 47.429 6.2143C48.5188 7.09158 47.2572 8.48047 45.8582 8.48047C44.4129 8.48047 43.1662 7.01058 44.3387 6.16556C44.76 5.86193 45.279 5.69434 45.867 5.69434ZM48.8531 11.5479C48.5539 11.5479 48.2919 11.7293 48.1057 11.9635C47.655 12.5306 46.92 12.8311 45.9198 12.8311C44.3114 12.8311 43.2655 11.6445 43.1864 9.77246C43.1864 9.73363 43.2179 9.70215 43.2567 9.70215H49.4178C49.7382 9.70215 49.9979 9.44244 49.9979 9.12207C49.9979 6.17773 48.4422 4.3584 45.8846 4.3584C43.2831 4.3584 41.6131 6.29199 41.6131 9.27148C41.6131 12.2686 43.2567 14.167 45.8846 14.167C47.5266 14.167 48.783 13.5446 49.4621 12.4787C49.7377 12.0461 49.366 11.5479 48.8531 11.5479ZM52.0247 13.2441C52.0247 13.6616 52.3631 14 52.7806 14C53.198 14 53.5364 13.6616 53.5364 13.2441V1.51953C53.5364 1.10208 53.198 0.763672 52.7806 0.763672C52.3631 0.763672 52.0247 1.10208 52.0247 1.51953V13.2441Z" stroke="#EBEFF5" stroke-width="2" mask="url(#path-1-inside-1_13444_1181)"/>
</svg>
